<mxfile host="app.diagrams.net" modified="2023-11-10T08:00:35.534Z" agent="Mozilla/5.0 (X11; Ubuntu; Linux x86_64; rv:109.0) Gecko/20100101 Firefox/119.0" etag="YmMVigetugL3_BbVNmem" version="22.1.0" type="github">
  <diagram name="PÃ¡gina-1" id="rxr_JlP93RXZHUQ-2PYm">
    <mxGraphModel dx="1434" dy="739" grid="1" gridSize="10" guides="1" tooltips="1" connect="1" arrows="1" fold="1" page="1" pageScale="1" pageWidth="827" pageHeight="1169" math="0" shadow="0">
      <root>
        <mxCell id="0" />
        <mxCell id="1" parent="0" />
        <mxCell id="utcyCVV9auZkEbPXE8PV-1" value="Entity" style="whiteSpace=wrap;html=1;align=center;gradientColor=none;fillColor=default;strokeWidth=2;strokeColor=default;rotation=0;" vertex="1" parent="1">
          <mxGeometry x="293.75" y="23.75" width="412.5" height="460" as="geometry" />
        </mxCell>
      </root>
    </mxGraphModel>
  </diagram>
</mxfile>
